# xmcd CD database file
#
# Track frame offsets:
#	150
#	48798
#	69720
#	89111
#	111587
#	126710
#	157909
#	184351
#	243346
#	268747
#	296279
#
# Disc length: 4232 seconds
#
# Revision: 0
# Processed by: cddbd v1.5.1PL2 Copyright (c) Steve Scherf et al.
# Submitted via: Feurio! 1.68 - http://www.feurio.com
#
DISCID=ab10860b
DTITLE=BB King - Sweet Little Angel
DYEAR=1900
DGENRE=
TTITLE0=B.B. King - BB's Theme
TTITLE1=B.B. King - Everyday I Have The Blues
TTITLE2=B.B. King - Why I Sing The Blues
TTITLE3=B.B. King - Darling, You Know I Love You
TTITLE4=B.B. King - Caledonia
TTITLE5=B.B. King - All Over Again
TTITLE6=B.B. King - Sweet Little Angel
TTITLE7=B.B. King - Jammin' With Dave Brubeck
TTITLE8=B.B. King - Guess Who
TTITLE9=B.B. King - Payin' The Cost To Be The Boss
TTITLE10=B.B. King - Thrill Is Gone
EXTD=
EXTT0=
EXTT1=
EXTT2=
EXTT3=
EXTT4=
EXTT5=
EXTT6=
EXTT7=
EXTT8=
EXTT9=
EXTT10=
PLAYORDER=
